<svg width="60" height="60" viewBox="0 0 60 60" fill="none" xmlns="http://www.w3.org/2000/svg">
<path fill-rule="evenodd" clip-rule="evenodd" d="M19.8628 3.125H40.1372C43.5562 3.12495 46.312 3.12491 48.4794 3.41631C50.7297 3.71885 52.6243 4.36608 54.1291 5.87088C55.6339 7.37567 56.2812 9.27035 56.5837 11.5206C56.8751 13.688 56.8751 16.4438 56.875 19.8628V30.1372C56.8751 33.5562 56.8751 36.312 56.5837 38.4794C56.2812 40.7296 55.6339 42.6243 54.1291 44.1291C52.8843 45.3739 51.3671 46.0364 49.5903 46.3982C47.8648 46.7496 45.7833 46.8381 43.319 46.8642L43.3049 46.8644L42.7439 46.8661C42.5021 47.6266 42.1087 48.3499 41.5637 48.9895C41.236 49.374 41.0379 49.8521 40.9978 50.3557C40.7575 53.3666 38.3666 55.7575 35.3557 55.9978C34.8521 56.0379 34.374 56.236 33.9895 56.5637C31.6906 58.5228 28.3094 58.5228 26.0105 56.5637C25.626 56.236 25.1479 56.0379 24.6443 55.9978C21.6334 55.7575 19.2425 53.3666 19.0023 50.3557C18.9621 49.8521 18.764 49.374 18.4363 48.9895C17.892 48.3508 17.499 47.6286 17.2571 46.8692C14.6563 46.8516 12.4793 46.7811 10.6909 46.4526C8.79589 46.1046 7.1832 45.4415 5.87088 44.1291C4.36609 42.6243 3.71885 40.7297 3.41631 38.4794C3.12491 36.312 3.12495 33.5562 3.125 30.1372V19.8628C3.12495 16.4438 3.12491 13.688 3.41631 11.5206C3.71885 9.27036 4.36608 7.37567 5.87088 5.87088C7.37567 4.36609 9.27035 3.71885 11.5206 3.41631C13.688 3.12491 16.4438 3.12495 19.8628 3.125ZM17.2609 43.1191C17.503 42.364 17.8948 41.6459 18.4363 41.0105C18.764 40.626 18.9621 40.1479 19.0023 39.6443C19.2425 36.6334 21.6334 34.2425 24.6443 34.0023C25.1479 33.9621 25.626 33.764 26.0105 33.4363C28.3094 31.4772 31.6906 31.4772 33.9895 33.4363C34.374 33.764 34.8521 33.9621 35.3557 34.0023C38.3666 34.2425 40.7575 36.6334 40.9978 39.6443C41.0379 40.1479 41.236 40.626 41.5637 41.0105C42.1044 41.6451 42.4959 42.3621 42.7382 43.1161L43.2861 43.1144C45.7493 43.0881 47.5056 42.9958 48.842 42.7236C50.1283 42.4617 50.8976 42.0573 51.4775 41.4775C52.1694 40.7856 52.6205 39.8141 52.8671 37.9797C53.121 36.0913 53.125 33.5885 53.125 30V20C53.125 16.4115 53.121 13.9087 52.8671 12.0203C52.6205 10.1859 52.1694 9.21443 51.4775 8.52253C50.7856 7.83062 49.8141 7.3795 47.9797 7.13287C46.0913 6.87898 43.5885 6.875 40 6.875H20C16.4115 6.875 13.9087 6.87898 12.0203 7.13287C10.1859 7.3795 9.21443 7.83062 8.52253 8.52253C7.83062 9.21444 7.3795 10.1859 7.13287 12.0203C6.87898 13.9087 6.875 16.4115 6.875 20V30C6.875 33.5885 6.87898 36.0913 7.13287 37.9797C7.3795 39.8141 7.83062 40.7856 8.52253 41.4775C9.13116 42.0861 9.95134 42.5041 11.3684 42.7643C12.7938 43.0262 14.6581 43.1009 17.2609 43.1191ZM20.625 15C20.625 13.9645 21.4645 13.125 22.5 13.125H37.5C38.5355 13.125 39.375 13.9645 39.375 15C39.375 16.0355 38.5355 16.875 37.5 16.875H22.5C21.4645 16.875 20.625 16.0355 20.625 15ZM15.625 23.75C15.625 22.7145 16.4645 21.875 17.5 21.875H42.5C43.5355 21.875 44.375 22.7145 44.375 23.75C44.375 24.7855 43.5355 25.625 42.5 25.625H17.5C16.4645 25.625 15.625 24.7855 15.625 23.75ZM31.5572 36.2905C30.6599 35.5258 29.3401 35.5258 28.4428 36.2905C27.4577 37.1301 26.2328 37.6374 24.9426 37.7404C23.7674 37.8342 22.8342 38.7674 22.7404 39.9426C22.6374 41.2328 22.1301 42.4577 21.2905 43.4428C20.5258 44.3401 20.5258 45.6599 21.2905 46.5572C22.1301 47.5423 22.6374 48.7672 22.7404 50.0574C22.8342 51.2326 23.7674 52.1659 24.9426 52.2596C26.2328 52.3626 27.4577 52.87 28.4428 53.7095C29.3401 54.4742 30.6599 54.4742 31.5572 53.7095C32.5423 52.87 33.7672 52.3626 35.0574 52.2596C36.2326 52.1659 37.1659 51.2326 37.2596 50.0574C37.3626 48.7672 37.87 47.5423 38.7095 46.5572C39.4742 45.6599 39.4742 44.3401 38.7095 43.4428C37.87 42.4577 37.3626 41.2328 37.2596 39.9426C37.1659 38.7674 36.2326 37.8342 35.0574 37.7404C33.7672 37.6374 32.5423 37.1301 31.5572 36.2905ZM32.4707 41.1293C33.2277 40.4227 34.4142 40.4636 35.1207 41.2207C35.8273 41.9777 35.7864 43.1642 35.0294 43.8707L29.6722 48.8707C28.9518 49.5431 27.8339 49.5431 27.1135 48.8707L24.9707 46.8707C24.2136 46.1642 24.1727 44.9777 24.8793 44.2207C25.5858 43.4636 26.7723 43.4227 27.5294 44.1293L28.3929 44.9352L32.4707 41.1293Z" fill="#60131D"/>
</svg>
