<svg width="60" height="60" viewBox="0 0 60 60" fill="none" xmlns="http://www.w3.org/2000/svg">
<path d="M43.9404 26.2003C44.6033 25.4048 44.4959 24.2225 43.7003 23.5596C42.9048 22.8967 41.7225 23.0041 41.0596 23.7997L36.5674 29.1903C35.6404 30.3027 35.0711 30.9788 34.6022 31.4022C34.3847 31.5986 34.2557 31.6769 34.1938 31.7068C34.1813 31.7129 34.1723 31.7165 34.1667 31.7187C34.161 31.7165 34.1521 31.7129 34.1395 31.7068C34.0777 31.6769 33.9487 31.5986 33.7312 31.4022C33.2622 30.9788 32.693 30.3027 31.766 29.1903L31.035 28.3131C30.2138 27.3275 29.4735 26.439 28.7821 25.8146C28.0297 25.1352 27.0821 24.5301 25.8333 24.5301C24.5846 24.5301 23.637 25.1352 22.8846 25.8146C22.1931 26.439 21.4528 27.3275 20.6317 28.3131L16.0596 33.7997C15.3967 34.5952 15.5041 35.7775 16.2997 36.4404C17.0952 37.1033 18.2775 36.9959 18.9404 36.2003L23.4326 30.8097C24.3596 29.6973 24.9289 29.0212 25.3978 28.5978C25.6153 28.4014 25.7443 28.3231 25.8062 28.2932C25.8187 28.2871 25.8277 28.2835 25.8333 28.2813C25.839 28.2835 25.8479 28.2871 25.8605 28.2932C25.9223 28.3231 26.0513 28.4014 26.2688 28.5978C26.7378 29.0212 27.307 29.6973 28.234 30.8097L28.965 31.6869C29.7862 32.6725 30.5265 33.561 31.2179 34.1854C31.9703 34.8648 32.9179 35.4699 34.1667 35.4699C35.4154 35.4699 36.363 34.8648 37.1154 34.1854C37.8069 33.561 38.5471 32.6725 39.3683 31.6869L43.9404 26.2003Z" fill="#60131D"/>
<path fill-rule="evenodd" clip-rule="evenodd" d="M29.8566 3.125C24.0856 3.12497 19.563 3.12494 16.0343 3.59937C12.4224 4.08497 9.57237 5.09832 7.33534 7.33534C5.09832 9.57237 4.08497 12.4224 3.59937 16.0343C3.12494 19.563 3.12497 24.0856 3.125 29.8566V30.1434C3.12497 35.9144 3.12494 40.437 3.59937 43.9657C4.08497 47.5776 5.09832 50.4276 7.33534 52.6647C9.57237 54.9017 12.4224 55.915 16.0343 56.4006C19.563 56.8751 24.0856 56.875 29.8566 56.875H30.1434C35.9144 56.875 40.437 56.8751 43.9657 56.4006C47.5776 55.915 50.4276 54.9017 52.6647 52.6647C54.9017 50.4276 55.915 47.5776 56.4006 43.9657C56.8751 40.437 56.875 35.9144 56.875 30.1434V29.8566C56.875 24.0856 56.8751 19.563 56.4006 16.0343C55.915 12.4224 54.9017 9.57237 52.6647 7.33534C50.4276 5.09832 47.5776 4.08497 43.9657 3.59937C40.437 3.12494 35.9144 3.12497 30.1434 3.125H29.8566ZM9.98699 9.98699C11.4111 8.56285 13.3379 7.74562 16.5339 7.31593C19.7839 6.87898 24.0544 6.875 30 6.875C35.9456 6.875 40.2161 6.87898 43.4661 7.31593C46.6621 7.74562 48.5889 8.56285 50.013 9.98699C51.4371 11.4111 52.2544 13.3379 52.6841 16.5339C53.121 19.7839 53.125 24.0544 53.125 30C53.125 35.9456 53.121 40.2161 52.6841 43.4661C52.2544 46.6621 51.4371 48.5889 50.013 50.013C48.5889 51.4371 46.6621 52.2544 43.4661 52.6841C40.2161 53.121 35.9456 53.125 30 53.125C24.0544 53.125 19.7839 53.121 16.5339 52.6841C13.3379 52.2544 11.4111 51.4371 9.98699 50.013C8.56285 48.5889 7.74562 46.6621 7.31593 43.4661C6.87898 40.2161 6.875 35.9456 6.875 30C6.875 24.0544 6.87898 19.7839 7.31593 16.5339C7.74562 13.3379 8.56285 11.4111 9.98699 9.98699Z" fill="#60131D"/>
</svg>
