<svg width="60" height="60" viewBox="0 0 60 60" fill="none" xmlns="http://www.w3.org/2000/svg">
<path d="M7.50742 30.8913C8.2392 31.624 8.23848 32.8111 7.5058 33.5429L7.12131 33.9269C6.79289 34.255 6.79289 34.7858 7.12132 35.1139C7.451 35.4432 7.98646 35.4432 8.31614 35.1139L12.5455 30.8897C13.2782 30.1579 14.4654 30.1586 15.1971 30.8913C15.9289 31.624 15.9282 32.8111 15.1955 33.5429L10.9662 37.7671C9.1724 39.5587 6.26506 39.5587 4.47128 37.7671C2.67624 35.9743 2.67624 33.0665 4.47128 31.2737L4.85577 30.8897C5.58844 30.1579 6.77563 30.1586 7.50742 30.8913Z" fill="#60131D"/>
<path d="M19.6426 33.382C20.3749 34.1142 20.3749 35.3014 19.6426 36.0336L14.3504 41.3259C13.6181 42.0581 12.4309 42.0581 11.6987 41.3259C10.9665 40.5936 10.9665 39.4064 11.6987 38.6742L16.991 33.382C17.7232 32.6497 18.9104 32.6497 19.6426 33.382Z" fill="#60131D"/>
<path d="M26.5819 40.3128C27.3141 41.045 27.3141 42.2322 26.5819 42.9644L21.3258 48.2205C20.5936 48.9527 19.4064 48.9527 18.6742 48.2205C17.9419 47.4883 17.9419 46.3011 18.6742 45.5688L23.9302 40.3128C24.6625 39.5805 25.8497 39.5805 26.5819 40.3128Z" fill="#60131D"/>
<path d="M18.6806 41.3024C19.4046 42.0427 19.3914 43.2298 18.6511 43.9539L14.3771 48.1337C13.6368 48.8578 12.4497 48.8446 11.7256 48.1042C11.0016 47.3639 11.0148 46.1768 11.7551 45.4527L16.0291 41.2729C16.7694 40.5488 17.9565 40.5621 18.6806 41.3024Z" fill="#60131D"/>
<path d="M29.0159 44.8153C29.7476 45.548 29.7469 46.7352 29.0142 47.4669L24.7849 51.6911C24.4565 52.0192 24.4565 52.55 24.7849 52.8781C25.1146 53.2073 25.65 53.2073 25.9797 52.8781L26.3642 52.494C27.0969 51.7623 28.2841 51.763 29.0159 52.4957C29.7476 53.2283 29.7469 54.4155 29.0142 55.1473L28.6298 55.5313C26.836 57.3229 23.9286 57.3229 22.1349 55.5313C20.3398 53.7385 20.3398 50.8307 22.1349 49.0379L26.3642 44.8137C27.0969 44.0819 28.2841 44.0826 29.0159 44.8153Z" fill="#60131D"/>
<path fill-rule="evenodd" clip-rule="evenodd" d="M44.98 3.12489L45.3142 3.12503L46.6773 3.12503C48.5612 3.12494 50.1601 3.12487 51.4354 3.29562C52.7922 3.47727 54.0604 3.8824 55.0858 4.90346C56.1122 5.92561 56.5206 7.19162 56.7035 8.54647C56.8752 9.81803 56.8751 11.4116 56.875 13.2864L56.875 14.6451L56.8751 14.9799C56.8766 17.2323 56.8777 18.8817 56.2489 20.3934C55.6204 21.9043 54.4495 23.0687 52.849 24.6604L52.6112 24.897L46.9463 30.5381L47.0444 30.6895C47.8966 32.004 48.5947 33.0807 49.1001 34.0119C49.6261 34.981 50.0086 35.9059 50.1621 36.937C50.4062 38.577 50.1852 40.2613 49.5392 41.8069C49.2928 42.3965 48.8724 43.0025 48.4555 43.5395C48.0159 44.1058 47.4805 44.72 46.9087 45.3424C45.7714 46.5801 44.4073 47.9385 43.2008 49.14L43.1832 49.1575L43.0004 49.3395C41.3146 51.0182 38.3899 50.478 37.4878 48.2179C36.9906 46.972 36.7963 46.4938 36.5544 46.0534C36.3284 45.6418 36.069 45.2491 35.7788 44.8792C35.4728 44.4893 35.1147 44.1271 34.1944 43.2105L33.1369 42.2844C32.9595 42.3034 32.7797 42.3131 32.5974 42.3131C31.1501 42.3131 29.9659 41.7076 28.876 40.8795C27.8524 40.1018 26.7214 38.9754 25.3896 37.6492L22.2237 34.4966C20.8921 33.1707 19.7609 32.0444 18.9798 31.0249C18.1483 29.9397 17.537 28.7567 17.537 27.3083C17.537 27.0897 17.5511 26.8753 17.5784 26.6644L15.8597 24.9529C15.7539 24.8477 15.7131 24.8071 15.6729 24.7681C14.8825 24.0022 13.9524 23.3928 12.9321 22.9729C12.8803 22.9516 12.8267 22.9303 12.6877 22.8753L11.8641 22.5494C9.49742 21.6127 8.85714 18.5581 10.667 16.7559L10.6845 16.7385C11.8911 15.537 13.2552 14.1787 14.4982 13.0461C15.1232 12.4767 15.7399 11.9437 16.3084 11.506C16.8479 11.0907 17.4554 10.673 18.0457 10.4284C19.5949 9.78633 21.2821 9.56701 22.9245 9.80943C23.9565 9.96176 24.8831 10.3415 25.8559 10.865C26.7905 11.3681 27.8715 12.063 29.192 12.9118L29.3563 13.0175L35.0301 7.36757L35.2664 7.13208C36.8663 5.53691 38.0347 4.3719 39.5497 3.74699C41.064 3.12241 42.7159 3.12345 44.98 3.12489ZM44.2302 33.2427C44.9336 34.3304 45.4384 35.1268 45.8042 35.8007C46.2189 36.5646 46.3884 37.0556 46.4529 37.4891C46.5934 38.4326 46.4696 39.4269 46.0792 40.3609C46.0319 40.4742 45.8663 40.7596 45.4934 41.2399C45.1432 41.691 44.6848 42.2203 44.1474 42.8051C43.1348 43.9071 41.9155 45.1272 40.7537 46.2846C40.4086 45.424 40.1567 44.8226 39.8414 44.2483C39.5171 43.6578 39.145 43.0946 38.729 42.5643C38.2598 41.9663 37.723 41.4319 36.8814 40.594L36.7907 40.5037C36.8751 40.4336 36.9591 40.3623 37.0427 40.2902C37.8669 39.5793 38.7899 38.6601 39.8513 37.6031L44.2302 33.2427ZM45.3142 6.87503C42.5717 6.87503 41.7208 6.90798 40.9796 7.21367C40.2394 7.51901 39.6155 8.0936 37.6761 10.0248L24.9593 22.688C23.8731 23.7697 23.0581 24.5827 22.4456 25.2808C21.8297 25.9828 21.5337 26.4434 21.3949 26.7882C21.3158 26.9846 21.287 27.1463 21.287 27.3083C21.287 27.6023 21.3799 27.9916 21.9565 28.7441C22.566 29.5396 23.5136 30.4889 24.9593 31.9286L25.1298 32.0983L28.2873 28.9541C29.0211 28.2234 30.2083 28.2259 30.939 28.9597C31.6697 29.6935 31.6671 30.8807 30.9334 31.6114L27.7871 34.7444L27.9464 34.903C29.392 36.3425 30.3454 37.2863 31.1446 37.8935C31.9001 38.4675 32.2949 38.5631 32.5974 38.5631C32.7519 38.5631 32.9031 38.5376 33.0786 38.473C33.4193 38.3477 33.8794 38.0665 34.5933 37.4506C35.3042 36.8375 36.134 36.0127 37.2484 34.903L49.9652 22.2397C51.9055 20.3076 52.481 19.6875 52.7865 18.9531C53.0916 18.2197 53.125 17.3777 53.125 14.6451L53.125 13.413C53.125 11.3768 53.121 10.0391 52.9872 9.04822C52.8608 8.1121 52.6505 7.77061 52.4397 7.5607C52.2278 7.34971 51.8817 7.13882 50.9378 7.01246C49.9408 6.87898 48.5956 6.87503 46.5515 6.87503H45.3142ZM45.8685 14.0819C43.4872 11.7107 39.6296 11.7107 37.2484 14.0819C34.8627 16.4575 34.8627 20.3124 37.2484 22.688C39.6296 25.0593 43.4872 25.0593 45.8685 22.688C48.2541 20.3124 48.2541 16.4575 45.8685 14.0819ZM39.8944 16.7392C40.8125 15.825 42.3043 15.825 43.2224 16.7392C44.1361 17.649 44.1361 19.1209 43.2224 20.0308C42.3043 20.945 40.8125 20.945 39.8944 20.0308C38.9807 19.1209 38.9807 17.649 39.8944 16.7392ZM26.6355 15.7268C25.5497 15.0307 24.7532 14.5302 24.0787 14.1672C23.311 13.754 22.8158 13.584 22.3769 13.5192C21.425 13.3787 20.4222 13.5028 19.4813 13.8927C19.3656 13.9406 19.0781 14.1063 18.5959 14.4775C18.1427 14.8264 17.6112 15.2829 17.0238 15.8181C15.9222 16.8219 14.703 18.0296 13.5454 19.1818L14.0676 19.3885L14.0802 19.3934C14.2029 19.442 14.2811 19.4729 14.3592 19.5051C15.8186 20.1056 17.1502 20.9778 18.2827 22.0752C18.3434 22.1341 18.4032 22.1936 18.4971 22.2872L19.3472 23.1336C19.4385 23.0244 19.5318 22.9158 19.6267 22.8077C20.332 22.0037 21.2361 21.1034 22.2731 20.0708L26.6355 15.7268Z" fill="#60131D"/>
</svg>
