<svg width="72" height="72" viewBox="0 0 72 72" fill="none" xmlns="http://www.w3.org/2000/svg">
<g id="Simplification" clip-path="url(#clip0_111_958)">
<path id="Vector" d="M35.9401 -0.0593634C36.1858 -0.0586546 36.1858 -0.0586546 36.4364 -0.0579314C38.8333 -0.0472337 41.1629 0.00640615 43.5035 0.569924C43.6827 0.6118 43.8619 0.653676 44.0466 0.696821C50.3745 2.21624 56.0911 5.16432 60.7911 9.68866C60.9493 9.83798 60.9493 9.83798 61.1106 9.99031C66.0332 14.6525 69.4393 20.6347 71.109 27.2018C71.1551 27.3821 71.2011 27.5623 71.2486 27.748C71.9091 30.4777 72.0718 33.147 72.0589 35.9406C72.0584 36.1044 72.0579 36.2682 72.0574 36.4369C72.0468 38.8338 71.9931 41.1634 71.4296 43.504C71.3877 43.6832 71.3458 43.8624 71.3027 44.0471C69.7833 50.375 66.8352 56.0916 62.3109 60.7916C62.2113 60.897 62.1118 61.0025 62.0092 61.1111C57.347 66.0337 51.3648 69.4398 44.7977 71.1095C44.6174 71.1556 44.4372 71.2016 44.2515 71.2491C41.5218 71.9096 38.8525 72.0723 36.0589 72.0594C35.8951 72.0589 35.7314 72.0584 35.5626 72.0579C33.1657 72.0472 30.8361 71.9936 28.4956 71.4301C28.3163 71.3882 28.1371 71.3463 27.9524 71.3032C21.6245 69.7838 15.9079 66.8357 11.208 62.3113C11.1025 62.2118 10.997 62.1123 10.8884 62.0097C5.96586 57.3475 2.55968 51.3653 0.890016 44.7982C0.843947 44.6179 0.797877 44.4377 0.750412 44.252C0.0899284 41.5223 -0.0727475 38.853 -0.0598517 36.0594C-0.0593791 35.8956 -0.0589066 35.7319 -0.0584197 35.5631C-0.0477219 33.1662 0.00591787 30.8366 0.569436 28.496C0.611312 28.3168 0.653188 28.1376 0.696332 27.9529C2.21575 21.625 5.16383 15.9084 9.68817 11.2084C9.78772 11.103 9.88726 10.9975 9.98983 10.8889C14.652 5.96634 20.6342 2.56017 27.2014 0.890505C27.3816 0.844435 27.5618 0.798366 27.7475 0.7509C30.4772 0.0904167 33.1465 -0.0722592 35.9401 -0.0593634Z" fill="#FEFEFE"/>
<path id="Vector_2" d="M34.433 13.2477C34.7885 13.247 34.7885 13.247 35.1513 13.2462C35.5245 13.2484 35.5245 13.2484 35.9052 13.2507C36.1541 13.2492 36.4029 13.2477 36.6592 13.2462C36.8963 13.2467 37.1333 13.2472 37.3775 13.2477C37.596 13.2481 37.8144 13.2486 38.0395 13.249C38.5649 13.2982 38.5649 13.2982 38.9448 13.6781C38.9905 14.1132 38.9905 14.1132 38.988 14.6629C38.9879 14.8683 38.9879 15.0737 38.9879 15.2852C38.9859 15.5077 38.9839 15.7301 38.9819 15.9593C38.9814 16.1864 38.9809 16.4136 38.9803 16.6476C38.9782 17.3755 38.9734 18.1033 38.9686 18.8311C38.9667 19.3236 38.9649 19.8161 38.9634 20.3086C38.9592 21.518 38.9528 22.7273 38.9448 23.9367C39.138 23.9348 39.138 23.9348 39.3351 23.9328C40.6756 23.9202 42.0162 23.9116 43.3567 23.9054C43.857 23.9025 44.3573 23.8986 44.8576 23.8937C45.5768 23.8868 46.2958 23.8835 47.015 23.881C47.2386 23.8781 47.4623 23.8751 47.6927 23.8721C48.0064 23.872 48.0064 23.872 48.3264 23.872C48.5099 23.8707 48.6934 23.8694 48.8825 23.8681C49.701 23.9779 50.1978 24.3644 50.7781 24.9318C51.1927 25.6011 51.1925 26.04 51.1744 26.8219C51.1719 27.0558 51.1695 27.2896 51.167 27.5306C51.1031 28.1161 51.1031 28.1161 50.7232 28.496C50.2705 28.5331 50.2705 28.5331 49.7496 28.5198C49.5767 28.5164 49.4038 28.5129 49.2257 28.5094C49.0929 28.505 48.9602 28.5006 48.8235 28.496C48.8185 28.6499 48.8185 28.6499 48.8134 28.8069C48.6632 33.3228 48.4476 37.8359 48.2342 42.3491C48.1912 43.2593 48.1491 44.1696 48.1077 45.0798C48.057 46.1932 48.0049 47.3064 47.9518 48.4196C47.932 48.8396 47.9127 49.2596 47.8939 49.6795C47.8676 50.2647 47.8395 50.8497 47.8109 51.4347C47.8001 51.6894 47.8001 51.6894 47.7891 51.9494C47.6775 54.1346 47.3785 56.0697 45.7364 57.6214C44.5846 58.6576 43.3097 58.978 41.7942 58.9716C41.6506 58.9732 41.507 58.9748 41.3591 58.9765C40.8893 58.9809 40.4195 58.9811 39.9496 58.9809C39.6198 58.9822 39.2901 58.9837 38.9603 58.9853C38.2708 58.9878 37.5814 58.9881 36.8918 58.987C36.0125 58.9859 35.1333 58.9917 34.254 58.9994C33.5733 59.0043 32.8927 59.0048 32.2121 59.0041C31.8881 59.0045 31.5641 59.0063 31.2401 59.0097C29.1714 59.029 27.5602 58.8995 25.9086 57.5286C24.2212 55.5437 24.1199 53.6357 24.0007 51.1107C23.9895 50.8851 23.9784 50.6594 23.9669 50.4269C23.9366 49.8111 23.9069 49.1952 23.8775 48.5794C23.8464 47.9328 23.8147 47.2862 23.7831 46.6396C23.7302 45.5539 23.6777 44.4682 23.6256 43.3824C23.5654 42.13 23.5045 40.8777 23.4433 39.6254C23.3842 38.4173 23.3255 37.2091 23.2671 36.0009C23.2423 35.4884 23.2174 34.9758 23.1923 34.4633C23.1574 33.7463 23.123 33.0293 23.0887 32.3123C23.0783 32.1013 23.0679 31.8904 23.0573 31.673C23.0071 30.6125 22.9761 29.5577 22.987 28.496C22.8543 28.5005 22.7216 28.5049 22.5848 28.5094C22.3255 28.5145 22.3255 28.5145 22.0609 28.5198C21.889 28.5242 21.7171 28.5286 21.54 28.5331C21.0873 28.496 21.0873 28.496 20.7074 28.1161C20.5674 27.0787 20.4549 25.9413 20.9493 24.9919C21.3402 24.5362 21.6892 24.2056 22.2271 23.9367C22.5667 23.9194 22.9069 23.9143 23.2469 23.9151C23.4598 23.9151 23.6728 23.9151 23.8922 23.9152C24.1229 23.9161 24.3537 23.9171 24.5914 23.9181C24.827 23.9184 25.0626 23.9187 25.3054 23.9189C25.9319 23.9198 26.5583 23.9215 27.1848 23.9236C27.8241 23.9256 28.4633 23.9264 29.1026 23.9274C30.3569 23.9295 31.6113 23.9327 32.8657 23.9367C32.8648 23.809 32.864 23.6813 32.8631 23.5498C32.8547 22.2247 32.849 20.8997 32.8448 19.5746C32.8429 19.0796 32.8403 18.5847 32.837 18.0897C32.8324 17.3796 32.8302 16.6694 32.8286 15.9593C32.8266 15.7368 32.8246 15.5144 32.8226 15.2852C32.8226 14.9772 32.8226 14.9772 32.8225 14.6629C32.8217 14.4815 32.8208 14.3001 32.82 14.1132C32.9236 13.1268 33.6127 13.2493 34.433 13.2477Z" fill="#FEFEFD"/>
<path id="Vector_3" d="M34.433 13.2477C34.7885 13.247 34.7885 13.247 35.1513 13.2462C35.5245 13.2484 35.5245 13.2484 35.9052 13.2507C36.1541 13.2492 36.4029 13.2477 36.6592 13.2462C36.8963 13.2467 37.1333 13.2472 37.3775 13.2477C37.596 13.2481 37.8144 13.2486 38.0395 13.249C38.5649 13.2982 38.5649 13.2982 38.9448 13.6781C38.9905 14.1132 38.9905 14.1132 38.988 14.6629C38.9879 14.8683 38.9879 15.0737 38.9879 15.2852C38.9859 15.5077 38.9839 15.7301 38.9819 15.9593C38.9814 16.1864 38.9809 16.4136 38.9803 16.6476C38.9782 17.3755 38.9734 18.1033 38.9686 18.8311C38.9667 19.3236 38.9649 19.8161 38.9634 20.3086C38.9592 21.518 38.9528 22.7273 38.9448 23.9367C39.138 23.9348 39.138 23.9348 39.3351 23.9328C40.6756 23.9202 42.0162 23.9116 43.3567 23.9054C43.857 23.9025 44.3573 23.8986 44.8576 23.8937C45.5768 23.8868 46.2958 23.8835 47.015 23.881C47.2386 23.8781 47.4623 23.8751 47.6927 23.8721C48.0064 23.872 48.0064 23.872 48.3264 23.872C48.5099 23.8707 48.6934 23.8694 48.8825 23.8681C49.701 23.9779 50.1978 24.3644 50.7781 24.9318C51.1927 25.6011 51.1925 26.04 51.1744 26.8219C51.1719 27.0558 51.1695 27.2896 51.167 27.5306C51.1031 28.1161 51.1031 28.1161 50.7232 28.496C50.2705 28.5331 50.2705 28.5331 49.7496 28.5198C49.5767 28.5164 49.4038 28.5129 49.2257 28.5094C49.0929 28.505 48.9602 28.5006 48.8235 28.496C48.8185 28.6499 48.8185 28.6499 48.8134 28.8069C48.6632 33.3228 48.4476 37.8359 48.2342 42.3491C48.1912 43.2593 48.1491 44.1696 48.1077 45.0798C48.057 46.1932 48.0049 47.3064 47.9518 48.4196C47.932 48.8396 47.9127 49.2596 47.8939 49.6795C47.8676 50.2647 47.8395 50.8497 47.8109 51.4347C47.8001 51.6894 47.8001 51.6894 47.7891 51.9494C47.6775 54.1346 47.3785 56.0697 45.7364 57.6214C44.5846 58.6576 43.3097 58.978 41.7942 58.9716C41.6506 58.9732 41.507 58.9748 41.3591 58.9765C40.8893 58.9809 40.4195 58.9811 39.9496 58.9809C39.6198 58.9822 39.2901 58.9837 38.9603 58.9853C38.2708 58.9878 37.5814 58.9881 36.8918 58.987C36.0125 58.9859 35.1333 58.9917 34.254 58.9994C33.5733 59.0043 32.8927 59.0048 32.2121 59.0041C31.8881 59.0045 31.5641 59.0063 31.2401 59.0097C29.1714 59.029 27.5602 58.8995 25.9086 57.5286C24.2212 55.5437 24.1199 53.6357 24.0007 51.1107C23.9895 50.8851 23.9784 50.6594 23.9669 50.4269C23.9366 49.8111 23.9069 49.1952 23.8775 48.5794C23.8464 47.9328 23.8147 47.2862 23.7831 46.6396C23.7302 45.5539 23.6777 44.4682 23.6256 43.3824C23.5654 42.13 23.5045 40.8777 23.4433 39.6254C23.3842 38.4173 23.3255 37.2091 23.2671 36.0009C23.2423 35.4884 23.2174 34.9758 23.1923 34.4633C23.1574 33.7463 23.123 33.0293 23.0887 32.3123C23.0783 32.1013 23.0679 31.8904 23.0573 31.673C23.0071 30.6125 22.9761 29.5577 22.987 28.496C22.8543 28.5005 22.7216 28.5049 22.5848 28.5094C22.3255 28.5145 22.3255 28.5145 22.0609 28.5198C21.889 28.5242 21.7171 28.5286 21.54 28.5331C21.0873 28.496 21.0873 28.496 20.7074 28.1161C20.5674 27.0787 20.4549 25.9413 20.9493 24.9919C21.3402 24.5362 21.6892 24.2056 22.2271 23.9367C22.5667 23.9194 22.9069 23.9143 23.2469 23.9151C23.4598 23.9151 23.6728 23.9151 23.8922 23.9152C24.1229 23.9161 24.3537 23.9171 24.5914 23.9181C24.827 23.9184 25.0626 23.9187 25.3054 23.9189C25.9319 23.9198 26.5583 23.9215 27.1848 23.9236C27.8241 23.9256 28.4633 23.9264 29.1026 23.9274C30.3569 23.9295 31.6113 23.9327 32.8657 23.9367C32.8648 23.809 32.864 23.6813 32.8631 23.5498C32.8547 22.2247 32.849 20.8997 32.8448 19.5746C32.8429 19.0796 32.8403 18.5847 32.837 18.0897C32.8324 17.3796 32.8302 16.6694 32.8286 15.9593C32.8266 15.7368 32.8246 15.5144 32.8226 15.2852C32.8226 14.9772 32.8226 14.9772 32.8225 14.6629C32.8217 14.4815 32.8208 14.3001 32.82 14.1132C32.9236 13.1268 33.6127 13.2493 34.433 13.2477ZM24.8868 34.5752C24.8819 36.8833 24.8819 36.8833 24.9505 39.186C24.9573 39.3394 24.9641 39.4927 24.9711 39.6506C24.9933 40.145 25.0164 40.6394 25.0396 41.1337C25.0558 41.4833 25.0719 41.833 25.088 42.1826C25.1217 42.9097 25.156 43.6367 25.1906 44.3638C25.2346 45.2917 25.2767 46.2198 25.3182 47.1479C25.3508 47.8677 25.3847 48.5874 25.419 49.3071C25.4351 49.6492 25.4507 49.9914 25.4658 50.3336C25.487 50.8121 25.5102 51.2905 25.5338 51.7688C25.5395 51.9074 25.5453 52.046 25.5512 52.1888C25.6284 53.6679 25.8079 55.0684 26.7865 56.2322C27.9216 57.2085 28.7473 57.3943 30.2463 57.4057C30.3829 57.4069 30.5196 57.4082 30.6604 57.4094C31.1115 57.4132 31.5626 57.4154 32.0138 57.4173C32.2457 57.4185 32.2457 57.4185 32.4822 57.4196C33.3006 57.4236 34.1191 57.4263 34.9375 57.4281C35.7802 57.4302 36.6229 57.4367 37.4657 57.4443C38.116 57.4493 38.7662 57.4508 39.4165 57.4515C39.7271 57.4524 40.0376 57.4546 40.3481 57.4582C42.8298 57.5355 42.8298 57.5355 44.9289 56.3371C45.6518 55.5213 46.0087 54.8307 46.074 53.7507C46.087 53.5459 46.1 53.3412 46.1135 53.1303C46.1262 52.9001 46.1389 52.6699 46.1519 52.4327C46.1739 52.0639 46.1739 52.0639 46.1964 51.6877C46.2524 50.733 46.303 49.7781 46.3538 48.8232C46.3711 48.5014 46.3711 48.5014 46.3887 48.1731C46.4753 46.5546 46.5599 44.936 46.6428 43.3173C46.6624 42.937 46.6821 42.5566 46.7019 42.1762C46.7395 41.4473 46.7761 40.7184 46.8124 39.9894C46.8237 39.7735 46.8349 39.5575 46.8465 39.335C46.9242 37.7424 46.9237 36.175 46.9237 34.5752C39.6515 34.5752 32.3793 34.5752 24.8868 34.5752Z" fill="#60131D"/>
<path id="Vector_4" d="M23.6593 25.4082C23.995 25.4066 23.995 25.4066 24.3374 25.405C24.5841 25.4057 24.8309 25.4065 25.0851 25.4073C25.3465 25.4068 25.608 25.4061 25.8695 25.4053C26.5807 25.4035 27.2919 25.4042 28.0031 25.4054C28.7463 25.4064 29.4895 25.4055 30.2327 25.4049C31.481 25.4042 32.7292 25.4051 33.9775 25.4069C35.422 25.409 36.8665 25.4083 38.311 25.4062C39.5498 25.4045 40.7885 25.4043 42.0272 25.4053C42.7677 25.4058 43.5082 25.4059 44.2487 25.4047C44.9448 25.4036 45.6408 25.4043 46.3369 25.4065C46.7152 25.4073 47.0936 25.4061 47.4719 25.405C47.6957 25.406 47.9194 25.4071 48.15 25.4082C48.3453 25.4084 48.5406 25.4085 48.7418 25.4086C49.2028 25.4565 49.2028 25.4565 49.5828 25.8364C49.5828 26.2126 49.5828 26.5887 49.5828 26.9762C40.5552 26.9762 31.5277 26.9762 22.2266 26.9762C22.2266 25.5442 22.3402 25.4092 23.6593 25.4082Z" fill="#FEFEFE"/>
<path id="Vector_5" d="M38.9443 28.496C41.7028 28.496 44.4612 28.496 47.3032 28.496C47.2405 30.0006 47.1778 31.5052 47.1132 33.0554C44.4175 33.0554 41.7218 33.0554 38.9443 33.0554C38.9443 31.5508 38.9443 30.0462 38.9443 28.496Z" fill="#FEFEFD"/>
<path id="Vector_6" d="M24.5068 28.496C27.2653 28.496 30.0237 28.496 32.8657 28.496C32.8657 30.0006 32.8657 31.5052 32.8657 33.0554C30.1699 33.0554 27.4742 33.0554 24.6968 33.0554C24.6341 31.5508 24.5714 30.0462 24.5068 28.496Z" fill="#FEFEFD"/>
<path id="Vector_7" d="M34.3848 14.8179C35.3878 14.8179 36.3909 14.8179 37.4243 14.8179C37.4243 17.8271 37.4243 20.8363 37.4243 23.9367C36.4213 23.9367 35.4182 23.9367 34.3848 23.9367C34.3848 20.9275 34.3848 17.9183 34.3848 14.8179Z" fill="white"/>
<path id="Vector_8" d="M42.5542 51.2929C43.3312 51.6362 43.8199 52.089 44.264 52.8127C44.3833 53.7674 44.2703 54.324 43.6941 55.0924C43.1711 55.7025 42.7384 55.8275 41.9368 55.9354C40.9994 55.826 40.5029 55.4186 39.8946 54.7124C39.6599 54.0084 39.6181 53.554 39.7046 52.8127C40.4803 51.605 41.0994 51.1942 42.5542 51.2929Z" fill="#60131D"/>
<path id="Vector_9" d="M36.4751 51.2929C37.2521 51.6362 37.7408 52.089 38.1849 52.8127C38.3042 53.7674 38.1912 54.324 37.615 55.0924C37.092 55.7025 36.6593 55.8275 35.8577 55.9354C34.9203 55.826 34.4238 55.4186 33.8155 54.7124C33.5808 54.0084 33.539 53.554 33.6255 52.8127C34.4012 51.605 35.0203 51.1942 36.4751 51.2929Z" fill="#60131D"/>
<path id="Vector_10" d="M30.396 51.2929C31.173 51.6362 31.6617 52.089 32.1058 52.8127C32.2251 53.7674 32.1121 54.324 31.5359 55.0924C31.0129 55.7025 30.5802 55.8275 29.7786 55.9354C28.8412 55.826 28.3447 55.4186 27.7364 54.7124C27.5017 54.0084 27.4599 53.554 27.5464 52.8127C28.3221 51.605 28.9412 51.1942 30.396 51.2929Z" fill="#60131D"/>
<path id="Vector_11" d="M40.274 45.9736C41.0509 46.3169 41.5396 46.7697 41.9837 47.4934C42.1031 48.4481 41.99 49.0048 41.4138 49.7731C40.8908 50.3832 40.4581 50.5082 39.6565 50.6161C38.7191 50.5067 38.2226 50.0994 37.6143 49.3931C37.3796 48.6891 37.3379 48.2348 37.4243 47.4934C38.2 46.2858 38.8191 45.875 40.274 45.9736Z" fill="#60131D"/>
<path id="Vector_12" d="M32.6753 45.9736C33.4523 46.3169 33.941 46.7697 34.3851 47.4934C34.5044 48.4481 34.3914 49.0048 33.8152 49.7731C33.2922 50.3832 32.8595 50.5082 32.0579 50.6161C31.1205 50.5067 30.624 50.0994 30.0157 49.3931C29.781 48.6891 29.7392 48.2348 29.8257 47.4934C30.6014 46.2858 31.2205 45.875 32.6753 45.9736Z" fill="#60131D"/>
<path id="Vector_13" d="M34.3848 28.496C35.3878 28.496 36.3909 28.496 37.4243 28.496C37.4243 30.0006 37.4243 31.5052 37.4243 33.0554C36.4213 33.0554 35.4182 33.0554 34.3848 33.0554C34.3848 31.5508 34.3848 30.0462 34.3848 28.496Z" fill="white"/>
<path id="Vector_14" d="M41.6046 52.8127C42.1032 52.8839 42.1032 52.8839 42.5544 53.0026C42.6732 53.4538 42.6732 53.4538 42.7444 53.9525C42.619 54.0779 42.4936 54.2033 42.3645 54.3324C41.8658 54.2612 41.8658 54.2612 41.4146 54.1425C41.2958 53.6913 41.2958 53.6913 41.2246 53.1926C41.35 53.0672 41.4754 52.9418 41.6046 52.8127Z" fill="#FEF9EE"/>
<path id="Vector_15" d="M35.5255 52.8127C36.0241 52.8839 36.0241 52.8839 36.4753 53.0026C36.5941 53.4538 36.5941 53.4538 36.6653 53.9525C36.5399 54.0779 36.4145 54.2033 36.2853 54.3324C35.7867 54.2612 35.7867 54.2612 35.3355 54.1425C35.2167 53.6913 35.2167 53.6913 35.1455 53.1926C35.2709 53.0672 35.3963 52.9418 35.5255 52.8127Z" fill="#FEF9EE"/>
<path id="Vector_16" d="M29.4464 52.8127C29.945 52.8839 29.945 52.8839 30.3962 53.0026C30.515 53.4538 30.515 53.4538 30.5862 53.9525C30.4608 54.0779 30.3354 54.2033 30.2062 54.3324C29.7076 54.2612 29.7076 54.2612 29.2564 54.1425C29.1376 53.6913 29.1376 53.6913 29.0664 53.1926C29.1918 53.0672 29.3172 52.9418 29.4464 52.8127Z" fill="#FEF9EE"/>
<path id="Vector_17" d="M39.3243 47.4934C39.823 47.5646 39.823 47.5646 40.2742 47.6834C40.3929 48.1346 40.3929 48.1346 40.4641 48.6332C40.3387 48.7586 40.2134 48.884 40.0842 49.0132C39.5855 48.942 39.5855 48.942 39.1343 48.8232C39.0156 48.372 39.0156 48.372 38.9443 47.8734C39.0697 47.748 39.1951 47.6226 39.3243 47.4934Z" fill="#FEF9EE"/>
<path id="Vector_18" d="M31.7257 47.4934C32.2243 47.5646 32.2243 47.5646 32.6755 47.6834C32.7943 48.1346 32.7943 48.1346 32.8655 48.6332C32.7401 48.7586 32.6147 48.884 32.4855 49.0132C31.9869 48.942 31.9869 48.942 31.5357 48.8232C31.4169 48.372 31.4169 48.372 31.3457 47.8734C31.4711 47.748 31.5965 47.6226 31.7257 47.4934Z" fill="#FEF9EE"/>
</g>
<defs>
<clipPath id="clip0_111_958">
<rect width="72" height="72" fill="white"/>
</clipPath>
</defs>
</svg>
